<svg width="178" height="166" viewBox="0 0 178 166" fill="none" xmlns="http://www.w3.org/2000/svg">
<path d="M170.286 104.227C176.001 94.7109 182.216 67.837 174.13 50.1834C173.206 55.2533 167.404 64.7988 158.658 65.6261C175.308 50.7792 174.757 14.5969 143.185 0C137.088 14.647 115.224 19.2804 100.632 19.3011C58.4554 19.3616 23.6378 15.2011 0.0588265 61.7653C5.63161 57.9057 7.79334 57.9057 15.534 57.9057C-0.325043 62.3288 -0.190243 80.7727 0.0575899 104.228C0.0588266 93.5711 8.71814 84.9306 19.4009 84.9306C19.49 84.9306 19.5802 84.9306 19.6695 84.9319H65.5572C65.6463 84.9331 65.7368 84.9341 65.8258 84.9341C72.1552 84.9341 77.7752 81.9006 81.3038 77.2115H89.0373C92.5658 81.9006 98.1846 84.9341 104.513 84.9341C104.603 84.9341 104.693 84.9331 104.781 84.9319H150.674C150.763 84.9306 150.854 84.9306 150.943 84.9306C161.624 84.9306 170.283 93.5699 170.286 104.227Z" fill="#2CCCD3"/>
<path fill-rule="evenodd" clip-rule="evenodd" d="M170.286 138.98L170.284 108.086C143.208 100.37 113.386 100.37 85.1712 100.37C56.9563 100.37 27.1347 100.37 0.058372 108.086L0.0566406 138.98C0.0566406 149.64 8.71719 158.282 19.4 158.282C19.4895 158.282 19.58 158.281 19.6686 158.28H65.5573C65.6461 158.279 65.7363 158.278 65.8261 158.278C72.1543 158.278 77.7746 161.311 81.3028 166H89.0366C92.5659 161.312 98.1844 158.278 104.513 158.278C104.602 158.278 104.693 158.279 104.781 158.28H150.674C150.762 158.281 150.853 158.282 150.942 158.282C161.625 158.282 170.286 149.64 170.286 138.98ZM147.047 125.725L112.237 111.946V120.483L135.117 129.257L112.237 138.142V146.696L147.047 132.708V125.725ZM23.2721 125.725L58.0812 111.946V120.482L35.2012 129.257L58.0812 138.141V146.696L23.2721 132.708V125.725Z" fill="white"/>
</svg>
