<svg width="16" height="16" viewBox="0 0 16 16" fill="none" xmlns="http://www.w3.org/2000/svg">
<mask id="mask0_3_288" style="mask-type:alpha" maskUnits="userSpaceOnUse" x="0" y="0" width="16" height="16">
<rect width="16" height="16" fill="#D9D9D9"/>
</mask>
<g mask="url(#mask0_3_288)">
<path d="M4.66669 14C4.30002 14 3.98613 13.8694 3.72502 13.6083C3.46391 13.3472 3.33335 13.0333 3.33335 12.6667V4H2.66669V2.66667H6.00002V2H10V2.66667H13.3334V4H12.6667V12.6667C12.6667 13.0333 12.5361 13.3472 12.275 13.6083C12.0139 13.8694 11.7 14 11.3334 14H4.66669ZM11.3334 4H4.66669V12.6667H11.3334V4ZM6.00002 11.3333H7.33335V5.33333H6.00002V11.3333ZM8.66669 11.3333H10V5.33333H8.66669V11.3333Z" fill="#EB2E2E"/>
</g>
</svg>
