<svg width="24" height="24" viewBox="0 0 24 24" fill="none" xmlns="http://www.w3.org/2000/svg">
<path fill-rule="evenodd" clip-rule="evenodd" d="M7.84624 18.3824L8.7603 17.4683L6.39981 15.1078L5.48574 16.0219V17.0967H6.77146V18.3824H7.84624ZM13.0996 9.06096C13.0996 8.91364 13.0259 8.83998 12.8786 8.83998C12.8116 8.83998 12.7547 8.86341 12.7078 8.91029L7.26365 14.3545C7.21677 14.4014 7.19333 14.4583 7.19333 14.5252C7.19333 14.6726 7.26699 14.7462 7.41432 14.7462C7.48128 14.7462 7.5382 14.7228 7.58507 14.6759L13.0293 9.23172C13.0761 9.18484 13.0996 9.12792 13.0996 9.06096H13.0996ZM12.5572 7.13239L16.7357 11.311L8.37859 19.6681H4.20001V15.4895L12.5572 7.13239ZM19.4177 8.09667C19.4177 8.45158 19.2938 8.75292 19.046 9.00069L17.3786 10.6681L13.2001 6.48953L14.8675 4.83216C15.1085 4.5777 15.4099 4.45046 15.7715 4.45046C16.1264 4.45046 16.4311 4.5777 16.6856 4.83216L19.046 7.18261C19.2938 7.44377 19.4177 7.74845 19.4177 8.09667V8.09667Z" fill="white"/>
</svg>
