<svg width="21" height="11" viewBox="0 0 21 11" fill="none" xmlns="http://www.w3.org/2000/svg">
<path d="M5 6.35084C4.65513 6.35084 4.36378 6.23179 4.12595 5.99369C3.88813 5.75557 3.76922 5.46388 3.76922 5.1186C3.76922 4.77332 3.88813 4.48163 4.12595 4.24351C4.36378 4.00541 4.65513 3.88636 5 3.88636C5.34487 3.88636 5.63622 4.00541 5.87405 4.24351C6.11187 4.48163 6.23077 4.77332 6.23077 5.1186C6.23077 5.46388 6.11187 5.75557 5.87405 5.99369C5.63622 6.23179 5.34487 6.35084 5 6.35084ZM5 10.1246C3.61538 10.1246 2.43589 9.6368 1.46152 8.66129C0.487175 7.68576 0 6.50487 0 5.1186C0 3.73233 0.487175 2.55144 1.46152 1.57591C2.43589 0.600396 3.61538 0.11264 5 0.11264C6.02692 0.11264 6.95288 0.391172 7.77787 0.948235C8.60287 1.50532 9.20512 2.22798 9.58463 3.11622H18.7885L20.7885 5.1186L17.5962 8.27621L15.8846 6.98622L14.0769 8.31473L12.2981 7.12098H9.58463C9.20512 7.99639 8.60287 8.71584 7.77787 9.27933C6.95288 9.84282 6.02692 10.1246 5 10.1246ZM5 9.12337C5.98462 9.12337 6.82468 8.82686 7.5202 8.23386C8.2157 7.64083 8.66089 6.93615 8.85577 6.11979H12.6154L14.0462 7.08824L15.9038 5.75398L17.525 6.97659L19.3808 5.1186L18.3808 4.11741H8.85577C8.66089 3.30105 8.2157 2.59636 7.5202 2.00334C6.82468 1.41034 5.98462 1.11383 5 1.11383C3.9 1.11383 2.95833 1.50597 2.175 2.29023C1.39167 3.0745 1 4.01729 1 5.1186C1 6.21991 1.39167 7.1627 2.175 7.94697C2.95833 8.73123 3.9 9.12337 5 9.12337Z" fill="#1C1B1F"/>
</svg>
