<svg width="18" height="15" viewBox="0 0 18 15" fill="none" xmlns="http://www.w3.org/2000/svg">
<path d="M1.61538 14.0602C1.15513 14.0602 0.770833 13.9058 0.4625 13.5971C0.154167 13.2884 0 12.9037 0 12.4429V1.66079C0 1.19999 0.154167 0.81524 0.4625 0.506539C0.770833 0.197838 1.15513 0.0434875 1.61538 0.0434875H16.3846C16.8449 0.0434875 17.2292 0.197838 17.5375 0.506539C17.8458 0.81524 18 1.19999 18 1.66079V12.4429C18 12.9037 17.8458 13.2884 17.5375 13.5971C17.2292 13.9058 16.8449 14.0602 16.3846 14.0602H1.61538ZM9 7.16737L1 1.93036V12.4429C1 12.6226 1.05769 12.7702 1.17308 12.8857C1.28846 13.0012 1.43589 13.059 1.61538 13.059H16.3846C16.5641 13.059 16.7115 13.0012 16.8269 12.8857C16.9423 12.7702 17 12.6226 17 12.4429V1.93036L9 7.16737ZM9 6.05064L16.6923 1.04468H1.3077L9 6.05064ZM1 1.93036V1.04468V12.4429C1 12.6226 1.05769 12.7702 1.17308 12.8857C1.28846 13.0012 1.43589 13.059 1.61538 13.059H1V1.93036Z" fill="#1C1B1F"/>
</svg>
