<svg width="14" height="14" viewBox="0 0 14 14" fill="none" xmlns="http://www.w3.org/2000/svg">
<path d="M7 6.38462C6.175 6.38462 5.46875 6.09087 4.88125 5.50337C4.29375 4.91587 4 4.20962 4 3.38462C4 2.55961 4.29375 1.85335 4.88125 1.26585C5.46875 0.678348 6.175 0.384598 7 0.384598C7.825 0.384598 8.53125 0.678348 9.11875 1.26585C9.70625 1.85335 10 2.55961 10 3.38462C10 4.20962 9.70625 4.91587 9.11875 5.50337C8.53125 6.09087 7.825 6.38462 7 6.38462ZM0 13.6154V11.9692C0 11.5564 0.120192 11.1702 0.360575 10.8106C0.600958 10.451 0.924358 10.1718 1.33078 9.97307C2.27436 9.52051 3.21858 9.18108 4.16345 8.9548C5.10833 8.72852 6.05385 8.61537 7 8.61537C7.94615 8.61537 8.89167 8.72852 9.83655 8.9548C10.7814 9.18108 11.7256 9.52051 12.6692 9.97307C13.0756 10.1718 13.399 10.451 13.6394 10.8106C13.8798 11.1702 14 11.5564 14 11.9692V13.6154H0ZM1 12.6154H13V11.9692C13 11.7474 12.9285 11.5391 12.7856 11.3442C12.6426 11.1494 12.4449 10.9846 12.1923 10.85C11.3692 10.4513 10.5206 10.1458 9.6464 9.93365C8.77222 9.72146 7.89008 9.61537 7 9.61537C6.10992 9.61537 5.22778 9.72146 4.3536 9.93365C3.4794 10.1458 2.63077 10.4513 1.8077 10.85C1.55513 10.9846 1.35737 11.1494 1.21442 11.3442C1.07147 11.5391 1 11.7474 1 11.9692V12.6154ZM7 5.38462C7.55 5.38462 8.02083 5.18879 8.4125 4.79712C8.80417 4.40546 9 3.93462 9 3.38462C9 2.83462 8.80417 2.36379 8.4125 1.97212C8.02083 1.58046 7.55 1.38462 7 1.38462C6.45 1.38462 5.97917 1.58046 5.5875 1.97212C5.19583 2.36379 5 2.83462 5 3.38462C5 3.93462 5.19583 4.40546 5.5875 4.79712C5.97917 5.18879 6.45 5.38462 7 5.38462Z" fill="#1C1B1F"/>
</svg>
