<svg width="20" height="14" viewBox="0 0 20 14" fill="none" xmlns="http://www.w3.org/2000/svg">
<path d="M10 10.8333C11.0417 10.8333 11.9271 10.4688 12.6563 9.73959C13.3855 9.01043 13.75 8.12501 13.75 7.08334C13.75 6.04168 13.3855 5.15626 12.6563 4.42709C11.9271 3.69793 11.0417 3.33334 10 3.33334C8.95837 3.33334 8.07296 3.69793 7.34379 4.42709C6.61462 5.15626 6.25004 6.04168 6.25004 7.08334C6.25004 8.12501 6.61462 9.01043 7.34379 9.73959C8.07296 10.4688 8.95837 10.8333 10 10.8333ZM10 9.33334C9.37504 9.33334 8.84379 9.11459 8.40629 8.67709C7.96879 8.23959 7.75004 7.70834 7.75004 7.08334C7.75004 6.45834 7.96879 5.92709 8.40629 5.48959C8.84379 5.05209 9.37504 4.83334 10 4.83334C10.625 4.83334 11.1563 5.05209 11.5938 5.48959C12.0313 5.92709 12.25 6.45834 12.25 7.08334C12.25 7.70834 12.0313 8.23959 11.5938 8.67709C11.1563 9.11459 10.625 9.33334 10 9.33334ZM10 13.3333C7.97226 13.3333 6.12504 12.7674 4.45837 11.6354C2.79171 10.5035 1.58337 8.98612 0.833374 7.08334C1.58337 5.18057 2.79171 3.6632 4.45837 2.53126C6.12504 1.39932 7.97226 0.833344 10 0.833344C12.0278 0.833344 13.875 1.39932 15.5417 2.53126C17.2084 3.6632 18.4167 5.18057 19.1667 7.08334C18.4167 8.98612 17.2084 10.5035 15.5417 11.6354C13.875 12.7674 12.0278 13.3333 10 13.3333ZM10 11.6667C11.5695 11.6667 13.0105 11.2535 14.323 10.4271C15.6355 9.6007 16.6389 8.48612 17.3334 7.08334C16.6389 5.68057 15.6355 4.56598 14.323 3.73959C13.0105 2.9132 11.5695 2.50001 10 2.50001C8.4306 2.50001 6.98962 2.9132 5.67712 3.73959C4.36462 4.56598 3.36115 5.68057 2.66671 7.08334C3.36115 8.48612 4.36462 9.6007 5.67712 10.4271C6.98962 11.2535 8.4306 11.6667 10 11.6667Z" fill="#1C1B1F"/>
</svg>
