<svg width="205" height="173" viewBox="0 0 205 173" fill="none" xmlns="http://www.w3.org/2000/svg">
<path d="M15.12 145.82V162.5H12.384V155.204H4.536V162.5H1.8V145.82H4.536V152.972H12.384V145.82H15.12ZM30.8419 155.564C30.8419 156.06 30.8099 156.508 30.7459 156.908H20.6419C20.7219 157.964 21.1139 158.812 21.8179 159.452C22.5219 160.092 23.3859 160.412 24.4099 160.412C25.8819 160.412 26.9219 159.796 27.5299 158.564H30.4819C30.0819 159.78 29.3539 160.78 28.2979 161.564C27.2579 162.332 25.9619 162.716 24.4099 162.716C23.1459 162.716 22.0099 162.436 21.0019 161.876C20.0099 161.3 19.2259 160.5 18.6499 159.476C18.0899 158.436 17.8099 157.236 17.8099 155.876C17.8099 154.516 18.0819 153.324 18.6259 152.3C19.1859 151.26 19.9619 150.46 20.9539 149.9C21.9619 149.34 23.1139 149.06 24.4099 149.06C25.6579 149.06 26.7699 149.332 27.7459 149.876C28.7219 150.42 29.4819 151.188 30.0259 152.18C30.5699 153.156 30.8419 154.284 30.8419 155.564ZM27.9859 154.7C27.9699 153.692 27.6099 152.884 26.9059 152.276C26.2019 151.668 25.3299 151.364 24.2899 151.364C23.3459 151.364 22.5379 151.668 21.8659 152.276C21.1939 152.868 20.7939 153.676 20.6659 154.7H27.9859ZM36.2704 151.196C36.6704 150.524 37.1984 150.004 37.8544 149.636C38.5264 149.252 39.3184 149.06 40.2304 149.06V151.892H39.5344C38.4624 151.892 37.6464 152.164 37.0864 152.708C36.5424 153.252 36.2704 154.196 36.2704 155.54V162.5H33.5344V149.276H36.2704V151.196ZM48.4813 162.716C47.2333 162.716 46.1053 162.436 45.0973 161.876C44.0893 161.3 43.2973 160.5 42.7213 159.476C42.1453 158.436 41.8573 157.236 41.8573 155.876C41.8573 154.532 42.1533 153.34 42.7453 152.3C43.3373 151.26 44.1453 150.46 45.1693 149.9C46.1933 149.34 47.3373 149.06 48.6013 149.06C49.8653 149.06 51.0093 149.34 52.0333 149.9C53.0573 150.46 53.8653 151.26 54.4573 152.3C55.0493 153.34 55.3453 154.532 55.3453 155.876C55.3453 157.22 55.0413 158.412 54.4333 159.452C53.8253 160.492 52.9933 161.3 51.9373 161.876C50.8973 162.436 49.7453 162.716 48.4813 162.716ZM48.4813 160.34C49.1853 160.34 49.8413 160.172 50.4493 159.836C51.0733 159.5 51.5773 158.996 51.9613 158.324C52.3453 157.652 52.5373 156.836 52.5373 155.876C52.5373 154.916 52.3533 154.108 51.9853 153.452C51.6173 152.78 51.1293 152.276 50.5213 151.94C49.9133 151.604 49.2573 151.436 48.5533 151.436C47.8493 151.436 47.1933 151.604 46.5853 151.94C45.9933 152.276 45.5213 152.78 45.1693 153.452C44.8173 154.108 44.6413 154.916 44.6413 155.876C44.6413 157.3 45.0013 158.404 45.7213 159.188C46.4573 159.956 47.3773 160.34 48.4813 160.34ZM77.6044 145.82V162.5H74.8684V155.204H67.0204V162.5H64.2844V145.82H67.0204V152.972H74.8684V145.82H77.6044ZM80.2943 155.828C80.2943 154.5 80.5663 153.324 81.1103 152.3C81.6703 151.276 82.4223 150.484 83.3663 149.924C84.3263 149.348 85.3823 149.06 86.5343 149.06C87.5743 149.06 88.4783 149.268 89.2463 149.684C90.0303 150.084 90.6543 150.588 91.1183 151.196V149.276H93.8783V162.5H91.1183V160.532C90.6543 161.156 90.0223 161.676 89.2223 162.092C88.4223 162.508 87.5103 162.716 86.4863 162.716C85.3503 162.716 84.3103 162.428 83.3663 161.852C82.4223 161.26 81.6703 160.444 81.1103 159.404C80.5663 158.348 80.2943 157.156 80.2943 155.828ZM91.1183 155.876C91.1183 154.964 90.9263 154.172 90.5423 153.5C90.1743 152.828 89.6863 152.316 89.0783 151.964C88.4703 151.612 87.8143 151.436 87.1103 151.436C86.4063 151.436 85.7503 151.612 85.1423 151.964C84.5343 152.3 84.0383 152.804 83.6543 153.476C83.2863 154.132 83.1023 154.916 83.1023 155.828C83.1023 156.74 83.2863 157.54 83.6543 158.228C84.0383 158.916 84.5343 159.444 85.1423 159.812C85.7663 160.164 86.4223 160.34 87.1103 160.34C87.8143 160.34 88.4703 160.164 89.0783 159.812C89.6863 159.46 90.1743 158.948 90.5423 158.276C90.9263 157.588 91.1183 156.788 91.1183 155.876ZM98.8639 147.524C98.3679 147.524 97.9519 147.356 97.6159 147.02C97.2799 146.684 97.1119 146.268 97.1119 145.772C97.1119 145.276 97.2799 144.86 97.6159 144.524C97.9519 144.188 98.3679 144.02 98.8639 144.02C99.3439 144.02 99.7519 144.188 100.088 144.524C100.424 144.86 100.592 145.276 100.592 145.772C100.592 146.268 100.424 146.684 100.088 147.02C99.7519 147.356 99.3439 147.524 98.8639 147.524ZM100.208 149.276V162.5H97.4719V149.276H100.208ZM106.536 151.196C106.936 150.524 107.464 150.004 108.12 149.636C108.792 149.252 109.584 149.06 110.496 149.06V151.892H109.8C108.728 151.892 107.912 152.164 107.352 152.708C106.808 153.252 106.536 154.196 106.536 155.54V162.5H103.8V149.276H106.536V151.196ZM112.099 155.828C112.099 154.5 112.371 153.324 112.915 152.3C113.475 151.276 114.227 150.484 115.171 149.924C116.131 149.348 117.195 149.06 118.363 149.06C119.227 149.06 120.075 149.252 120.907 149.636C121.755 150.004 122.427 150.5 122.923 151.124V144.74H125.683V162.5H122.923V160.508C122.475 161.148 121.851 161.676 121.051 162.092C120.267 162.508 119.363 162.716 118.339 162.716C117.187 162.716 116.131 162.428 115.171 161.852C114.227 161.26 113.475 160.444 112.915 159.404C112.371 158.348 112.099 157.156 112.099 155.828ZM122.923 155.876C122.923 154.964 122.731 154.172 122.347 153.5C121.979 152.828 121.491 152.316 120.883 151.964C120.275 151.612 119.619 151.436 118.915 151.436C118.211 151.436 117.555 151.612 116.947 151.964C116.339 152.3 115.843 152.804 115.459 153.476C115.091 154.132 114.907 154.916 114.907 155.828C114.907 156.74 115.091 157.54 115.459 158.228C115.843 158.916 116.339 159.444 116.947 159.812C117.571 160.164 118.227 160.34 118.915 160.34C119.619 160.34 120.275 160.164 120.883 159.812C121.491 159.46 121.979 158.948 122.347 158.276C122.731 157.588 122.923 156.788 122.923 155.876ZM132.013 151.196C132.413 150.524 132.941 150.004 133.597 149.636C134.269 149.252 135.061 149.06 135.973 149.06V151.892H135.277C134.205 151.892 133.389 152.164 132.829 152.708C132.285 153.252 132.013 154.196 132.013 155.54V162.5H129.277V149.276H132.013V151.196ZM150.608 155.564C150.608 156.06 150.576 156.508 150.512 156.908H140.408C140.488 157.964 140.88 158.812 141.584 159.452C142.288 160.092 143.152 160.412 144.176 160.412C145.648 160.412 146.688 159.796 147.296 158.564H150.247C149.848 159.78 149.12 160.78 148.064 161.564C147.024 162.332 145.728 162.716 144.176 162.716C142.912 162.716 141.776 162.436 140.768 161.876C139.776 161.3 138.992 160.5 138.416 159.476C137.856 158.436 137.576 157.236 137.576 155.876C137.576 154.516 137.848 153.324 138.392 152.3C138.952 151.26 139.728 150.46 140.72 149.9C141.728 149.34 142.88 149.06 144.176 149.06C145.424 149.06 146.536 149.332 147.512 149.876C148.488 150.42 149.248 151.188 149.792 152.18C150.336 153.156 150.608 154.284 150.608 155.564ZM147.752 154.7C147.736 153.692 147.376 152.884 146.672 152.276C145.968 151.668 145.096 151.364 144.056 151.364C143.112 151.364 142.304 151.668 141.632 152.276C140.96 152.868 140.56 153.676 140.432 154.7H147.752ZM158.1 162.716C157.06 162.716 156.124 162.532 155.292 162.164C154.476 161.78 153.828 161.268 153.348 160.628C152.868 159.972 152.612 159.244 152.58 158.444H155.412C155.46 159.004 155.724 159.476 156.204 159.86C156.7 160.228 157.316 160.412 158.052 160.412C158.82 160.412 159.412 160.268 159.828 159.98C160.26 159.676 160.476 159.292 160.476 158.828C160.476 158.332 160.236 157.964 159.756 157.724C159.292 157.484 158.548 157.22 157.524 156.932C156.532 156.66 155.724 156.396 155.1 156.14C154.476 155.884 153.932 155.492 153.468 154.964C153.02 154.436 152.796 153.74 152.796 152.876C152.796 152.172 153.004 151.532 153.42 150.956C153.836 150.364 154.428 149.9 155.196 149.564C155.98 149.228 156.876 149.06 157.884 149.06C159.388 149.06 160.596 149.444 161.508 150.212C162.436 150.964 162.932 151.996 162.996 153.308H160.26C160.212 152.716 159.972 152.244 159.54 151.892C159.108 151.54 158.524 151.364 157.788 151.364C157.068 151.364 156.516 151.5 156.132 151.772C155.748 152.044 155.556 152.404 155.556 152.852C155.556 153.204 155.684 153.5 155.94 153.74C156.196 153.98 156.508 154.172 156.876 154.316C157.244 154.444 157.788 154.612 158.508 154.82C159.468 155.076 160.252 155.34 160.86 155.612C161.484 155.868 162.02 156.252 162.468 156.764C162.916 157.276 163.148 157.956 163.164 158.804C163.164 159.556 162.956 160.228 162.54 160.82C162.124 161.412 161.532 161.876 160.764 162.212C160.012 162.548 159.124 162.716 158.1 162.716ZM170.92 162.716C169.88 162.716 168.944 162.532 168.112 162.164C167.296 161.78 166.648 161.268 166.168 160.628C165.688 159.972 165.432 159.244 165.4 158.444H168.232C168.28 159.004 168.544 159.476 169.024 159.86C169.52 160.228 170.136 160.412 170.872 160.412C171.64 160.412 172.232 160.268 172.648 159.98C173.08 159.676 173.296 159.292 173.296 158.828C173.296 158.332 173.056 157.964 172.576 157.724C172.112 157.484 171.368 157.22 170.344 156.932C169.352 156.66 168.544 156.396 167.92 156.14C167.296 155.884 166.752 155.492 166.288 154.964C165.84 154.436 165.616 153.74 165.616 152.876C165.616 152.172 165.824 151.532 166.24 150.956C166.656 150.364 167.248 149.9 168.016 149.564C168.8 149.228 169.696 149.06 170.704 149.06C172.208 149.06 173.416 149.444 174.328 150.212C175.256 150.964 175.752 151.996 175.816 153.308H173.08C173.032 152.716 172.792 152.244 172.36 151.892C171.928 151.54 171.344 151.364 170.608 151.364C169.888 151.364 169.336 151.5 168.952 151.772C168.568 152.044 168.376 152.404 168.376 152.852C168.376 153.204 168.504 153.5 168.76 153.74C169.016 153.98 169.328 154.172 169.696 154.316C170.064 154.444 170.608 154.612 171.328 154.82C172.288 155.076 173.072 155.34 173.68 155.612C174.304 155.868 174.84 156.252 175.288 156.764C175.736 157.276 175.968 157.956 175.984 158.804C175.984 159.556 175.776 160.228 175.36 160.82C174.944 161.412 174.352 161.876 173.584 162.212C172.832 162.548 171.944 162.716 170.92 162.716ZM191.061 155.564C191.061 156.06 191.029 156.508 190.965 156.908H180.861C180.941 157.964 181.333 158.812 182.037 159.452C182.741 160.092 183.605 160.412 184.629 160.412C186.101 160.412 187.141 159.796 187.749 158.564H190.701C190.301 159.78 189.573 160.78 188.517 161.564C187.477 162.332 186.181 162.716 184.629 162.716C183.365 162.716 182.229 162.436 181.221 161.876C180.229 161.3 179.445 160.5 178.869 159.476C178.309 158.436 178.029 157.236 178.029 155.876C178.029 154.516 178.301 153.324 178.845 152.3C179.405 151.26 180.181 150.46 181.173 149.9C182.181 149.34 183.333 149.06 184.629 149.06C185.877 149.06 186.989 149.332 187.965 149.876C188.941 150.42 189.701 151.188 190.245 152.18C190.789 153.156 191.061 154.284 191.061 155.564ZM188.205 154.7C188.189 153.692 187.829 152.884 187.125 152.276C186.421 151.668 185.549 151.364 184.509 151.364C183.565 151.364 182.757 151.668 182.085 152.276C181.413 152.868 181.013 153.676 180.885 154.7H188.205ZM198.553 162.716C197.513 162.716 196.577 162.532 195.745 162.164C194.929 161.78 194.281 161.268 193.801 160.628C193.321 159.972 193.065 159.244 193.033 158.444H195.865C195.913 159.004 196.177 159.476 196.657 159.86C197.153 160.228 197.769 160.412 198.505 160.412C199.273 160.412 199.865 160.268 200.281 159.98C200.713 159.676 200.929 159.292 200.929 158.828C200.929 158.332 200.689 157.964 200.209 157.724C199.745 157.484 199.001 157.22 197.977 156.932C196.985 156.66 196.177 156.396 195.553 156.14C194.929 155.884 194.385 155.492 193.921 154.964C193.473 154.436 193.249 153.74 193.249 152.876C193.249 152.172 193.457 151.532 193.873 150.956C194.289 150.364 194.881 149.9 195.649 149.564C196.433 149.228 197.329 149.06 198.337 149.06C199.841 149.06 201.049 149.444 201.961 150.212C202.889 150.964 203.385 151.996 203.449 153.308H200.713C200.665 152.716 200.425 152.244 199.993 151.892C199.561 151.54 198.977 151.364 198.241 151.364C197.521 151.364 196.969 151.5 196.585 151.772C196.201 152.044 196.009 152.404 196.009 152.852C196.009 153.204 196.137 153.5 196.393 153.74C196.649 153.98 196.961 154.172 197.329 154.316C197.697 154.444 198.241 154.612 198.961 154.82C199.921 155.076 200.705 155.34 201.313 155.612C201.937 155.868 202.473 156.252 202.921 156.764C203.369 157.276 203.601 157.956 203.617 158.804C203.617 159.556 203.409 160.228 202.993 160.82C202.577 161.412 201.985 161.876 201.217 162.212C200.465 162.548 199.577 162.716 198.553 162.716Z" fill="white"/>
<g clip-path="url(#clip0_3_96)">
<path d="M163.715 78.1705C168.001 71.0332 172.662 50.8778 166.598 37.6375C165.904 41.44 161.553 48.5991 154.993 49.2196C167.481 38.0844 167.068 10.9477 143.389 0C138.816 10.9853 122.418 14.4603 111.474 14.4758C79.8417 14.5212 53.7285 11.4008 36.0443 46.324C40.2239 43.4293 41.8452 43.4293 47.6507 43.4293C35.7564 46.7466 35.8575 60.5795 36.0434 78.1712C36.0443 70.1784 42.5388 63.698 50.5509 63.698C50.6176 63.698 50.6854 63.698 50.7523 63.6989H85.1681C85.2349 63.6998 85.3028 63.7006 85.3696 63.7006C90.1166 63.7006 94.3316 61.4255 96.978 57.9086H102.778C105.425 61.4255 109.639 63.7006 114.385 63.7006C114.452 63.7006 114.52 63.6998 114.586 63.6989H149.006C149.072 63.698 149.14 63.698 149.207 63.698C157.218 63.698 163.713 70.1774 163.715 78.1705Z" fill="#2CCCD3"/>
<path fill-rule="evenodd" clip-rule="evenodd" d="M163.714 104.235L163.713 81.0644C143.406 75.2778 121.04 75.2778 99.8784 75.2778C78.7172 75.2778 56.3511 75.2778 36.0438 81.0644L36.0425 104.235C36.0425 112.23 42.5379 118.711 50.55 118.711C50.6171 118.711 50.685 118.711 50.7514 118.71H85.168C85.2346 118.709 85.3023 118.709 85.3696 118.709C90.1157 118.709 94.3309 120.983 96.9771 124.5H102.777C105.424 120.984 109.638 118.709 114.384 118.709C114.452 118.709 114.519 118.709 114.586 118.71H149.005C149.072 118.711 149.14 118.711 149.207 118.711C157.219 118.711 163.714 112.23 163.714 104.235ZM146.285 94.2935L120.178 83.9595V90.3623L137.338 96.9424L120.178 103.606V110.022L146.285 99.5309V94.2935ZM53.4541 94.2935L79.5609 83.9595V90.3617L62.4009 96.9424L79.5609 103.606V110.022L53.4541 99.5309V94.2935Z" fill="white"/>
</g>
<defs>
<clipPath id="clip0_3_96">
<rect width="133.5" height="124.5" fill="white" transform="translate(36)"/>
</clipPath>
</defs>
</svg>
