<svg width="198" height="42" viewBox="0 0 198 42" fill="none" xmlns="http://www.w3.org/2000/svg">
<path d="M70.58 17.755V28.875H68.756V24.011H63.524V28.875H61.7V17.755H63.524V22.523H68.756V17.755H70.58ZM81.0613 24.251C81.0613 24.5817 81.0399 24.8803 80.9973 25.147H74.2613C74.3146 25.851 74.5759 26.4163 75.0453 26.843C75.5146 27.2697 76.0906 27.483 76.7733 27.483C77.7546 27.483 78.4479 27.0723 78.8533 26.251H80.8212C80.5546 27.0617 80.0693 27.7283 79.3653 28.251C78.6719 28.763 77.8079 29.019 76.7733 29.019C75.9306 29.019 75.1733 28.8323 74.5013 28.459C73.8399 28.075 73.3173 27.5417 72.9333 26.859C72.5599 26.1657 72.3733 25.3657 72.3733 24.459C72.3733 23.5523 72.5546 22.7577 72.9173 22.075C73.2906 21.3817 73.8079 20.8483 74.4693 20.475C75.1413 20.1017 75.9093 19.915 76.7733 19.915C77.6053 19.915 78.3466 20.0963 78.9973 20.459C79.6479 20.8217 80.1546 21.3337 80.5173 21.995C80.8799 22.6457 81.0613 23.3977 81.0613 24.251ZM79.1573 23.675C79.1466 23.003 78.9066 22.4643 78.4373 22.059C77.9679 21.6537 77.3866 21.451 76.6933 21.451C76.0639 21.451 75.5253 21.6537 75.0773 22.059C74.6293 22.4537 74.3626 22.9923 74.2773 23.675H79.1573ZM84.6803 21.339C84.9469 20.891 85.2989 20.5443 85.7363 20.299C86.1843 20.043 86.7123 19.915 87.3203 19.915V21.803H86.8563C86.1416 21.803 85.5976 21.9843 85.2243 22.347C84.8616 22.7097 84.6803 23.339 84.6803 24.235V28.875H82.8563V20.059H84.6803V21.339ZM92.8209 29.019C91.9889 29.019 91.2369 28.8323 90.5649 28.459C89.8929 28.075 89.3649 27.5417 88.9809 26.859C88.5969 26.1657 88.4049 25.3657 88.4049 24.459C88.4049 23.563 88.6022 22.7683 88.9969 22.075C89.3915 21.3817 89.9302 20.8483 90.6129 20.475C91.2955 20.1017 92.0582 19.915 92.9009 19.915C93.7435 19.915 94.5062 20.1017 95.1889 20.475C95.8715 20.8483 96.4102 21.3817 96.8049 22.075C97.1995 22.7683 97.3969 23.563 97.3969 24.459C97.3969 25.355 97.1942 26.1497 96.7889 26.843C96.3835 27.5363 95.8289 28.075 95.1249 28.459C94.4315 28.8323 93.6635 29.019 92.8209 29.019ZM92.8209 27.435C93.2902 27.435 93.7275 27.323 94.1329 27.099C94.5489 26.875 94.8849 26.539 95.1409 26.091C95.3969 25.643 95.5249 25.099 95.5249 24.459C95.5249 23.819 95.4022 23.2803 95.1569 22.843C94.9115 22.395 94.5862 22.059 94.1809 21.835C93.7755 21.611 93.3382 21.499 92.8689 21.499C92.3995 21.499 91.9622 21.611 91.5569 21.835C91.1622 22.059 90.8475 22.395 90.6129 22.843C90.3782 23.2803 90.2609 23.819 90.2609 24.459C90.2609 25.4083 90.5009 26.1443 90.9809 26.667C91.4715 27.179 92.0849 27.435 92.8209 27.435ZM112.236 17.755V28.875H110.412V24.011H105.18V28.875H103.356V17.755H105.18V22.523H110.412V17.755H112.236ZM114.03 24.427C114.03 23.5417 114.211 22.7577 114.574 22.075C114.947 21.3923 115.448 20.8643 116.078 20.491C116.718 20.107 117.422 19.915 118.19 19.915C118.883 19.915 119.486 20.0537 119.998 20.331C120.52 20.5977 120.936 20.9337 121.246 21.339V20.059H123.086V28.875H121.246V27.563C120.936 27.979 120.515 28.3257 119.982 28.603C119.448 28.8803 118.84 29.019 118.158 29.019C117.4 29.019 116.707 28.827 116.078 28.443C115.448 28.0483 114.947 27.5043 114.574 26.811C114.211 26.107 114.03 25.3123 114.03 24.427ZM121.246 24.459C121.246 23.851 121.118 23.323 120.862 22.875C120.616 22.427 120.291 22.0857 119.886 21.851C119.48 21.6163 119.043 21.499 118.574 21.499C118.104 21.499 117.667 21.6163 117.262 21.851C116.856 22.075 116.526 22.411 116.27 22.859C116.024 23.2963 115.902 23.819 115.902 24.427C115.902 25.035 116.024 25.5683 116.27 26.027C116.526 26.4857 116.856 26.8377 117.262 27.083C117.678 27.3177 118.115 27.435 118.574 27.435C119.043 27.435 119.48 27.3177 119.886 27.083C120.291 26.8483 120.616 26.507 120.862 26.059C121.118 25.6003 121.246 25.067 121.246 24.459ZM126.409 18.891C126.079 18.891 125.801 18.779 125.577 18.555C125.353 18.331 125.241 18.0537 125.241 17.723C125.241 17.3923 125.353 17.115 125.577 16.891C125.801 16.667 126.079 16.555 126.409 16.555C126.729 16.555 127.001 16.667 127.225 16.891C127.449 17.115 127.561 17.3923 127.561 17.723C127.561 18.0537 127.449 18.331 127.225 18.555C127.001 18.779 126.729 18.891 126.409 18.891ZM127.305 20.059V28.875H125.481V20.059H127.305ZM131.524 21.339C131.791 20.891 132.143 20.5443 132.58 20.299C133.028 20.043 133.556 19.915 134.164 19.915V21.803H133.7C132.985 21.803 132.441 21.9843 132.068 22.347C131.705 22.7097 131.524 23.339 131.524 24.235V28.875H129.7V20.059H131.524V21.339ZM135.233 24.427C135.233 23.5417 135.414 22.7577 135.777 22.075C136.15 21.3923 136.651 20.8643 137.281 20.491C137.921 20.107 138.63 19.915 139.409 19.915C139.985 19.915 140.55 20.043 141.105 20.299C141.67 20.5443 142.118 20.875 142.449 21.291V17.035H144.289V28.875H142.449V27.547C142.15 27.9737 141.734 28.3257 141.201 28.603C140.678 28.8803 140.075 29.019 139.393 29.019C138.625 29.019 137.921 28.827 137.281 28.443C136.651 28.0483 136.15 27.5043 135.777 26.811C135.414 26.107 135.233 25.3123 135.233 24.427ZM142.449 24.459C142.449 23.851 142.321 23.323 142.065 22.875C141.819 22.427 141.494 22.0857 141.089 21.851C140.683 21.6163 140.246 21.499 139.777 21.499C139.307 21.499 138.87 21.6163 138.465 21.851C138.059 22.075 137.729 22.411 137.473 22.859C137.227 23.2963 137.105 23.819 137.105 24.427C137.105 25.035 137.227 25.5683 137.473 26.027C137.729 26.4857 138.059 26.8377 138.465 27.083C138.881 27.3177 139.318 27.435 139.777 27.435C140.246 27.435 140.683 27.3177 141.089 27.083C141.494 26.8483 141.819 26.507 142.065 26.059C142.321 25.6003 142.449 25.067 142.449 24.459ZM148.508 21.339C148.775 20.891 149.127 20.5443 149.564 20.299C150.012 20.043 150.54 19.915 151.148 19.915V21.803H150.684C149.97 21.803 149.426 21.9843 149.052 22.347C148.69 22.7097 148.508 23.339 148.508 24.235V28.875H146.684V20.059H148.508V21.339ZM160.905 24.251C160.905 24.5817 160.884 24.8803 160.841 25.147H154.105C154.158 25.851 154.42 26.4163 154.889 26.843C155.358 27.2697 155.934 27.483 156.617 27.483C157.598 27.483 158.292 27.0723 158.697 26.251H160.665C160.398 27.0617 159.913 27.7283 159.209 28.251C158.516 28.763 157.652 29.019 156.617 29.019C155.774 29.019 155.017 28.8323 154.345 28.459C153.684 28.075 153.161 27.5417 152.777 26.859C152.404 26.1657 152.217 25.3657 152.217 24.459C152.217 23.5523 152.398 22.7577 152.761 22.075C153.134 21.3817 153.652 20.8483 154.313 20.475C154.985 20.1017 155.753 19.915 156.617 19.915C157.449 19.915 158.19 20.0963 158.841 20.459C159.492 20.8217 159.998 21.3337 160.361 21.995C160.724 22.6457 160.905 23.3977 160.905 24.251ZM159.001 23.675C158.99 23.003 158.75 22.4643 158.281 22.059C157.812 21.6537 157.23 21.451 156.537 21.451C155.908 21.451 155.369 21.6537 154.921 22.059C154.473 22.4537 154.206 22.9923 154.121 23.675H159.001ZM165.9 29.019C165.207 29.019 164.583 28.8963 164.028 28.651C163.484 28.395 163.052 28.0537 162.732 27.627C162.412 27.1897 162.241 26.7043 162.22 26.171H164.108C164.14 26.5443 164.316 26.859 164.636 27.115C164.967 27.3603 165.377 27.483 165.868 27.483C166.38 27.483 166.775 27.387 167.052 27.195C167.34 26.9923 167.484 26.7363 167.484 26.427C167.484 26.0963 167.324 25.851 167.004 25.691C166.695 25.531 166.199 25.355 165.516 25.163C164.855 24.9817 164.316 24.8057 163.9 24.635C163.484 24.4643 163.121 24.203 162.812 23.851C162.513 23.499 162.364 23.035 162.364 22.459C162.364 21.9897 162.503 21.563 162.78 21.179C163.057 20.7843 163.452 20.475 163.964 20.251C164.487 20.027 165.084 19.915 165.756 19.915C166.759 19.915 167.564 20.171 168.172 20.683C168.791 21.1843 169.121 21.8723 169.164 22.747H167.34C167.308 22.3523 167.148 22.0377 166.86 21.803C166.572 21.5683 166.183 21.451 165.692 21.451C165.212 21.451 164.844 21.5417 164.588 21.723C164.332 21.9043 164.204 22.1443 164.204 22.443C164.204 22.6777 164.289 22.875 164.46 23.035C164.631 23.195 164.839 23.323 165.084 23.419C165.329 23.5043 165.692 23.6163 166.172 23.755C166.812 23.9257 167.335 24.1017 167.74 24.283C168.156 24.4537 168.513 24.7097 168.812 25.051C169.111 25.3923 169.265 25.8457 169.276 26.411C169.276 26.9123 169.137 27.3603 168.86 27.755C168.583 28.1497 168.188 28.459 167.676 28.683C167.175 28.907 166.583 29.019 165.9 29.019ZM174.447 29.019C173.754 29.019 173.13 28.8963 172.575 28.651C172.031 28.395 171.599 28.0537 171.279 27.627C170.959 27.1897 170.788 26.7043 170.767 26.171H172.655C172.687 26.5443 172.863 26.859 173.183 27.115C173.514 27.3603 173.924 27.483 174.415 27.483C174.927 27.483 175.322 27.387 175.599 27.195C175.887 26.9923 176.031 26.7363 176.031 26.427C176.031 26.0963 175.871 25.851 175.551 25.691C175.242 25.531 174.746 25.355 174.063 25.163C173.402 24.9817 172.863 24.8057 172.447 24.635C172.031 24.4643 171.668 24.203 171.359 23.851C171.06 23.499 170.911 23.035 170.911 22.459C170.911 21.9897 171.05 21.563 171.327 21.179C171.604 20.7843 171.999 20.475 172.511 20.251C173.034 20.027 173.631 19.915 174.303 19.915C175.306 19.915 176.111 20.171 176.719 20.683C177.338 21.1843 177.668 21.8723 177.711 22.747H175.887C175.855 22.3523 175.695 22.0377 175.407 21.803C175.119 21.5683 174.73 21.451 174.239 21.451C173.759 21.451 173.391 21.5417 173.135 21.723C172.879 21.9043 172.751 22.1443 172.751 22.443C172.751 22.6777 172.836 22.875 173.007 23.035C173.178 23.195 173.386 23.323 173.631 23.419C173.876 23.5043 174.239 23.6163 174.719 23.755C175.359 23.9257 175.882 24.1017 176.287 24.283C176.703 24.4537 177.06 24.7097 177.359 25.051C177.658 25.3923 177.812 25.8457 177.823 26.411C177.823 26.9123 177.684 27.3603 177.407 27.755C177.13 28.1497 176.735 28.459 176.223 28.683C175.722 28.907 175.13 29.019 174.447 29.019ZM187.874 24.251C187.874 24.5817 187.852 24.8803 187.81 25.147H181.074C181.127 25.851 181.388 26.4163 181.858 26.843C182.327 27.2697 182.903 27.483 183.586 27.483C184.567 27.483 185.26 27.0723 185.666 26.251H187.634C187.367 27.0617 186.882 27.7283 186.178 28.251C185.484 28.763 184.62 29.019 183.586 29.019C182.743 29.019 181.986 28.8323 181.314 28.459C180.652 28.075 180.13 27.5417 179.746 26.859C179.372 26.1657 179.186 25.3657 179.186 24.459C179.186 23.5523 179.367 22.7577 179.73 22.075C180.103 21.3817 180.62 20.8483 181.282 20.475C181.954 20.1017 182.722 19.915 183.586 19.915C184.418 19.915 185.159 20.0963 185.81 20.459C186.46 20.8217 186.967 21.3337 187.33 21.995C187.692 22.6457 187.874 23.3977 187.874 24.251ZM185.97 23.675C185.959 23.003 185.719 22.4643 185.25 22.059C184.78 21.6537 184.199 21.451 183.506 21.451C182.876 21.451 182.338 21.6537 181.89 22.059C181.442 22.4537 181.175 22.9923 181.09 23.675H185.97ZM192.869 29.019C192.175 29.019 191.551 28.8963 190.997 28.651C190.453 28.395 190.021 28.0537 189.701 27.627C189.381 27.1897 189.21 26.7043 189.189 26.171H191.077C191.109 26.5443 191.285 26.859 191.605 27.115C191.935 27.3603 192.346 27.483 192.837 27.483C193.349 27.483 193.743 27.387 194.021 27.195C194.309 26.9923 194.453 26.7363 194.453 26.427C194.453 26.0963 194.293 25.851 193.973 25.691C193.663 25.531 193.167 25.355 192.485 25.163C191.823 24.9817 191.285 24.8057 190.869 24.635C190.453 24.4643 190.09 24.203 189.781 23.851C189.482 23.499 189.333 23.035 189.333 22.459C189.333 21.9897 189.471 21.563 189.749 21.179C190.026 20.7843 190.421 20.475 190.933 20.251C191.455 20.027 192.053 19.915 192.725 19.915C193.727 19.915 194.533 20.171 195.141 20.683C195.759 21.1843 196.09 21.8723 196.133 22.747H194.309C194.277 22.3523 194.117 22.0377 193.829 21.803C193.541 21.5683 193.151 21.451 192.661 21.451C192.181 21.451 191.813 21.5417 191.557 21.723C191.301 21.9043 191.173 22.1443 191.173 22.443C191.173 22.6777 191.258 22.875 191.429 23.035C191.599 23.195 191.807 23.323 192.053 23.419C192.298 23.5043 192.661 23.6163 193.141 23.755C193.781 23.9257 194.303 24.1017 194.709 24.283C195.125 24.4537 195.482 24.7097 195.781 25.051C196.079 25.3923 196.234 25.8457 196.245 26.411C196.245 26.9123 196.106 27.3603 195.829 27.755C195.551 28.1497 195.157 28.459 194.645 28.683C194.143 28.907 193.551 29.019 192.869 29.019Z" fill="white"/>
<g clip-path="url(#clip0_3_142)">
<path d="M42.5717 26.0568C44.0005 23.6777 45.5541 16.9593 43.5328 12.5458C43.3016 13.8133 41.8511 16.1997 39.6646 16.4065C43.8271 12.6948 43.6894 3.64923 35.7963 0C34.2722 3.66176 28.8061 4.82009 25.1582 4.82527C14.614 4.84039 5.90963 3.80028 0.0148745 15.4413C1.40807 14.4764 1.9485 14.4764 3.88368 14.4764C-0.0810928 15.5822 -0.0473929 20.1932 0.0145653 26.0571C0.0148745 23.3928 2.1797 21.2327 4.8504 21.2327C4.87266 21.2327 4.89523 21.2327 4.91755 21.233H16.3895C16.4117 21.2333 16.4344 21.2335 16.4566 21.2335C18.039 21.2335 19.444 20.4751 20.3261 19.3029H22.2595C23.1416 20.4751 24.5463 21.2335 26.1284 21.2335C26.1509 21.2335 26.1735 21.2333 26.1955 21.233H37.6687C37.6909 21.2327 37.7136 21.2327 37.7358 21.2327C40.4062 21.2327 42.571 23.3925 42.5717 26.0568Z" fill="white"/>
<path fill-rule="evenodd" clip-rule="evenodd" d="M42.5714 34.745L42.5709 27.0215C35.8019 25.0927 28.3465 25.0927 21.2928 25.0927C14.2391 25.0927 6.78369 25.0927 0.014593 27.0215L0.0141602 34.745C0.0141602 37.41 2.1793 39.5705 4.85 39.5705C4.87238 39.5705 4.89501 39.5703 4.91715 39.5701H16.3893C16.4115 39.5698 16.4341 39.5696 16.4565 39.5696C18.0386 39.5696 19.4436 40.3278 20.3257 41.5H22.2592C23.1415 40.3281 24.5461 39.5696 26.1281 39.5696C26.1506 39.5696 26.1732 39.5698 26.1954 39.5701H37.6684C37.6906 39.5703 37.7132 39.5705 37.7356 39.5705C40.4063 39.5705 42.5714 37.41 42.5714 34.745ZM36.7617 31.4312L28.0594 27.9865V30.1208L33.7793 32.3142L28.0594 34.5355V36.6741L36.7617 33.177V31.4312ZM5.81802 31.4312L14.5203 27.9865V30.1206L8.8003 32.3142L14.5203 34.5353V36.6741L5.81802 33.177V31.4312Z" fill="white"/>
</g>
<defs>
<clipPath id="clip0_3_142">
<rect width="44.5" height="41.5" fill="white"/>
</clipPath>
</defs>
</svg>
