<svg width="45" height="42" viewBox="0 0 45 42" fill="none" xmlns="http://www.w3.org/2000/svg">
<g clip-path="url(#clip0_3_323)">
<path d="M42.5717 26.0568C44.0005 23.6777 45.5541 16.9593 43.5328 12.5458C43.3016 13.8133 41.8511 16.1997 39.6646 16.4065C43.8271 12.6948 43.6894 3.64923 35.7963 0C34.2722 3.66176 28.8061 4.82009 25.1582 4.82527C14.614 4.84039 5.90963 3.80028 0.0148745 15.4413C1.40807 14.4764 1.9485 14.4764 3.88368 14.4764C-0.0810928 15.5822 -0.0473929 20.1932 0.0145653 26.0571C0.0148745 23.3928 2.1797 21.2327 4.8504 21.2327C4.87266 21.2327 4.89523 21.2327 4.91755 21.233H16.3895C16.4117 21.2333 16.4344 21.2335 16.4566 21.2335C18.039 21.2335 19.444 20.4751 20.3261 19.3029H22.2595C23.1416 20.4751 24.5463 21.2335 26.1284 21.2335C26.1509 21.2335 26.1735 21.2333 26.1955 21.233H37.6687C37.6909 21.2327 37.7136 21.2327 37.7358 21.2327C40.4062 21.2327 42.571 23.3925 42.5717 26.0568Z" fill="white"/>
<path fill-rule="evenodd" clip-rule="evenodd" d="M42.5714 34.745L42.5709 27.0215C35.8019 25.0926 28.3465 25.0926 21.2928 25.0926C14.2391 25.0926 6.78369 25.0926 0.014593 27.0215L0.0141602 34.745C0.0141602 37.41 2.1793 39.5705 4.85 39.5705C4.87238 39.5705 4.89501 39.5702 4.91715 39.57H16.3893C16.4115 39.5698 16.4341 39.5695 16.4565 39.5695C18.0386 39.5695 19.4436 40.3278 20.3257 41.5H22.2592C23.1415 40.328 24.5461 39.5695 26.1281 39.5695C26.1506 39.5695 26.1732 39.5698 26.1954 39.57H37.6684C37.6906 39.5702 37.7132 39.5705 37.7356 39.5705C40.4063 39.5705 42.5714 37.41 42.5714 34.745ZM36.7617 31.4312L28.0594 27.9865V30.1208L33.7793 32.3141L28.0594 34.5355V36.674L36.7617 33.177V31.4312ZM5.81802 31.4312L14.5203 27.9865V30.1206L8.8003 32.3141L14.5203 34.5352V36.674L5.81802 33.177V31.4312Z" fill="white"/>
</g>
<defs>
<clipPath id="clip0_3_323">
<rect width="44.5" height="41.5" fill="white"/>
</clipPath>
</defs>
</svg>
